<svg xmlns="http://www.w3.org/2000/svg" xmlns:xlink="http://www.w3.org/1999/xlink" width="106.468" height="80.715" viewBox="0 0 106.468 80.715">
  <defs>
    <clipPath id="clip-path">
      <rect id="Rectangle_338" data-name="Rectangle 338" width="106.468" height="80.715" fill="none"/>
    </clipPath>
    <linearGradient id="linear-gradient" x1="0.401" y1="-0.259" x2="0.7" y2="1.802" gradientUnits="objectBoundingBox">
      <stop offset="0" stop-color="#ffdfd0"/>
      <stop offset="1" stop-color="#fd8c58"/>
    </linearGradient>
  </defs>
  <g id="img_congrats" transform="translate(-333 -235)">
    <g id="Mask_Group_13" data-name="Mask Group 13" transform="translate(333 235)" clip-path="url(#clip-path)">
      <g id="Group_17490" data-name="Group 17490" transform="translate(1.351)">
        <g id="Group_17488" data-name="Group 17488" transform="translate(0 37.873)">
          <path id="Path_24742" data-name="Path 24742" d="M207.828,303.912c-.145.556-1.16,3.647-.577,4.328s4.738,1.646,4.738,1.646,10.079,21.679,13.44,25.27c2.237,2.389,5.647,2.806,8.37-.319a14.626,14.626,0,0,0,2.717-5.217c1.028-3.216,1.708-5.585,2.16-7.272a36.527,36.527,0,0,0,.868-3.709l-7.432-2.515-1,2.869-1.376,3.966-1.152,3.3s-11.628-18.386-11.9-19.379.237-6.877-.987-7.335-1.82,3.8-1.82,3.8-10-4.181-11.516-4.153S207.981,303.357,207.828,303.912Z" transform="translate(-202.15 -299.189)" fill="#fff" stroke="#343434" stroke-width="1"/>
          <path id="Path_24743" data-name="Path 24743" d="M277.862,324.68s.021.042.069.132c.292.591,1.543,3.1,3.022,6.085.979,1.979,2.048,4.161,3.014,6.133,2.619,5.377,5.98,6.516,9,4.432s12.169-25.236,12.169-25.236,12.628-5.8,12.628-6.585c-.028-.771-3.96.771-3.96.771s.4-2.758-.369-2.743-1.584,2.813-2.048,2.91-6.4,1.195-6.4,1.195.23-.882.354-1.688.195-3.737-1.013-1.723-3.091,5.438-3.091,5.438L290.379,330.2l-1.994-5.4-1.23-3.334-8.593,2.973Z" transform="translate(-212.652 -307.67)" fill="#fff" stroke="#343434" stroke-width="1"/>
        </g>
        <path id="Path_24644" data-name="Path 24644" d="M368.121,105.511a62.961,62.961,0,0,0,.827,8c.16,1.132.34,2.326.52,3.543.153,1.028.313,2.07.48,3.112.18,1.195.361,2.389.549,3.549.16,1.077.326,2.119.472,3.106.2,1.3.382,2.5.528,3.549a31.237,31.237,0,0,1,.438,4.064c-.174,2.042-7.356-.618-15.8-.618a65.991,65.991,0,0,0-12.836,1.534,18.637,18.637,0,0,1-4.883.591c-2.355-.326-1.66-1.612-.716-5.571q.136-.542.271-1.167a13.249,13.249,0,0,0,.215-1.486c.028-.285.056-.584.076-.9.056-.925.083-1.98.091-3.106,0-.451,0-.909-.013-1.382-.007-.709-.022-1.438-.042-2.167-.028-1.035-.069-2.084-.125-3.112-.042-1-.1-1.98-.16-2.9-.007-.215-.022-.43-.035-.639-.215-3.446-.452-6.043-.452-6.043l-1.771,3.244c-.132-.014-.264-.022-.4-.035-.291-.028-.584-.07-.861-.111a17.045,17.045,0,0,1-7.739-3.23,9.942,9.942,0,0,1-.924-.806,1.926,1.926,0,0,1-.631-.972c0-.848,2.125-10.405,5.674-16.261,3.188-5.264,4.946-6.508,11.642-8.4.743-.209,1.549-.431,2.424-.66l12.4-.723s.979.237,2.369.639c2.515.722,6.37,1.973,8.142,3.279,2.751,2.035,6.564,16.323,7.147,17.747.326.792-1.84,2.042-3.834,3C369.586,104.935,368.121,105.511,368.121,105.511Z" transform="translate(-298.906 -46.286)" stroke="#343434" stroke-width="1" fill="url(#linear-gradient)"/>
        <g id="Group_17425" data-name="Group 17425" transform="translate(38.801 67.221)">
          <path id="Path_24646" data-name="Path 24646" d="M372.937,135.806H339.144q.136-.542.271-1.167a13.25,13.25,0,0,0,.215-1.486c.028-.285.056-.584.076-.9h32.7C372.61,133.556,372.791,134.757,372.937,135.806Z" transform="translate(-339.144 -118.948)" fill="#fff" opacity="0.25" style="mix-blend-mode: overlay;isolation: isolate"/>
          <path id="Path_24647" data-name="Path 24647" d="M372.006,128.386h-32.14c0-1.132-.021-2.334-.056-3.549h31.647C371.637,126.032,371.818,127.226,372.006,128.386Z" transform="translate(-339.213 -118.182)" fill="#fff" opacity="0.25" style="mix-blend-mode: overlay;isolation: isolate"/>
          <path id="Path_24648" data-name="Path 24648" d="M370.94,120.959H339.649c-.056-1.23-.126-2.431-.195-3.543H370.42C370.58,118.549,370.76,119.743,370.94,120.959Z" transform="translate(-339.176 -117.417)" fill="#fff" opacity="0.25" style="mix-blend-mode: overlay;isolation: isolate"/>
        </g>
        <g id="Group_17489" data-name="Group 17489" transform="translate(41.248)">
          <g id="Group_17489-2" data-name="Group 17489" transform="translate(0)">
            <path id="Path_24744" data-name="Path 24744" d="M265.019,295.356a6.434,6.434,0,0,1-12.4.727l.694-.278,1.975-.786s.112-.944.159-2.292a27.467,27.467,0,0,0-.159-4.261l7.761,1.236a10.935,10.935,0,0,0-.33,2.959,22.826,22.826,0,0,0,.159,2.636l1.288.033Z" transform="translate(-248.157 -261.946)" fill="#fff" stroke="#343434" stroke-width="1"/>
            <path id="Path_24746" data-name="Path 24746" d="M265.6,270.971c-3.924,2.318-11.005,4.3-11.005,4.3l-4.207,2.7-.139.086-2.53.806h-2.147c-1.605-3.376-2.992-6.368.377-7.59a7.707,7.707,0,0,1-.41-.746c-1.71-3.455-.813-7.531,4.333-8.277,5.522-.806,11.216-1.982,12.392-3.125s1.691,2.318.76,3.884c2.491-1.519,4.3-2.867,4.981-.971S269.519,268.652,265.6,270.971Z" transform="translate(-243.879 -258.895)" fill="#343434"/>
            <path id="Path_24747" data-name="Path 24747" d="M244.6,271.584c6.788-2.533,6.156-8.376,6.156-8.376s1.926,6.113-4.02,9.051" transform="translate(-226.994 -259.34)" fill="#343434"/>
            <path id="Path_24748" data-name="Path 24748" d="M270.672,278.689l-.139.086-2.53.806h-2.147c-1.605-3.376-2.992-6.368.377-7.59-.126-.238-.231-.469-.324-.693a5,5,0,0,1,.944-5.391c-.085.245-1.176,3.422.271,5.965a1.932,1.932,0,0,0,.231.08c-.449-1.572-.416-4.194.185-4.836a13.593,13.593,0,0,0,1.1,5.113c.133.013.205.013.205.013l1.8,5.423Z" transform="translate(-264.161 -259.618)" fill="#343434"/>
            <path id="Path_24749" data-name="Path 24749" d="M269.521,272.605a7.7,7.7,0,0,1-.41-.746c.027.02.06.033.086.053C269.289,272.136,269.4,272.367,269.521,272.605Z" transform="translate(-267.449 -260.232)" fill="#242837"/>
            <path id="Path_24750" data-name="Path 24750" d="M268.441,277.91a18.157,18.157,0,0,0-.257,4.492c.032,1.856-1.817,8.3-8.184,8.382s-8.593-6.189-9.1-8.409a1.809,1.809,0,0,1-2.385.873c-1.658-.674-2.22-4.75-.112-5.4s1.769,1.605,2.47,1.546c.291-.02.522-.569.693-1.282,0-.007,0-.007.007-.013a15.289,15.289,0,0,0,.37-3.005,5.717,5.717,0,0,0-.535-2.206l.118.02c3.362.614,10.9-.654,13.343-.707a20.111,20.111,0,0,1,3.574.139s.013.178.033.475A25.377,25.377,0,0,1,268.441,277.91Z" transform="translate(-246.718 -260.267)" fill="#fff" stroke="#343434" stroke-width="1"/>
            <path id="Path_24751" data-name="Path 24751" d="M256.393,280.747a1.717,1.717,0,0,1,2.247-.231" transform="translate(-245.161 -261.091)" fill="none" stroke="#343434" stroke-linecap="round" stroke-linejoin="round" stroke-width="0.387"/>
            <path id="Path_24752" data-name="Path 24752" d="M248.663,280.747a1.717,1.717,0,0,1,2.247-.231" transform="translate(-230.499 -261.091)" fill="none" stroke="#343434" stroke-linecap="round" stroke-linejoin="round" stroke-width="0.387"/>
            <path id="Path_24754" data-name="Path 24754" d="M268.414,279.85a2.527,2.527,0,0,1,.407,2.994" transform="translate(-266.452 -261.057)" fill="none" stroke="#343434" stroke-linecap="round" stroke-linejoin="round" stroke-width="1"/>
            <path id="Path_24755" data-name="Path 24755" d="M252,279.317a18.666,18.666,0,0,0,.449,3.149s1.321-.59,1.35.843-2.081.872-2.081.872" transform="translate(-236.12 -261.002)" fill="none" stroke="#343434" stroke-linecap="round" stroke-linejoin="round" stroke-width="1"/>
            <path id="Path_24756" data-name="Path 24756" d="M256.615,277.244a2.267,2.267,0,0,1,2.537-.281" transform="translate(-245.873 -260.73)" fill="none" stroke="#343434" stroke-linecap="round" stroke-linejoin="round" stroke-width="1"/>
            <path id="Path_24757" data-name="Path 24757" d="M250.875,277.174a2.269,2.269,0,0,0-2.549-.14" transform="translate(-230.162 -260.731)" fill="none" stroke="#343434" stroke-linecap="round" stroke-linejoin="round" stroke-width="1"/>
            <path id="Path_24758" data-name="Path 24758" d="M257.777,287.294a2.285,2.285,0,0,1-.166.574,2.492,2.492,0,0,1-.805,1.064,1.136,1.136,0,0,1-.178.133,2.324,2.324,0,0,1-1.7.369,2.423,2.423,0,0,1-1.757-1.288,2.36,2.36,0,0,1-.245-.707,1.908,1.908,0,0,1-.047-.436,2.165,2.165,0,0,1,.027-.5Z" transform="translate(-241.139 -261.743)" fill="#ff9a6a" stroke="#343434" stroke-linejoin="round" stroke-width="1"/>
          </g>
        </g>
      </g>
    </g>
  </g>
</svg>
